<?xml version="1.0" encoding="UTF-8"?>
<svg xmlns="http://www.w3.org/2000/svg" xmlns:xlink="http://www.w3.org/1999/xlink" width="2048" height="2048" viewBox="0 0 2048 2048">
<path fill-rule="nonzero" fill="rgb(100%, 100%, 100%)" fill-opacity="1" d="M 1570.480469 1779.101562 C 1569.90625 1774.953125 1571.984375 1769.28125 1568.980469 1766.101562 L 1521.480469 1766.101562 L 1521.480469 1834.101562 L 1568.980469 1834.101562 C 1571.421875 1831.03125 1571.386719 1823.054688 1568.980469 1820.101562 L 1537.480469 1820.101562 L 1537.480469 1807.101562 L 1562.480469 1807.101562 L 1562.480469 1793.101562 L 1537.480469 1793.101562 L 1537.480469 1779.101562 Z M 1411.480469 1766.101562 L 1394.480469 1766.101562 L 1394.480469 1815.601562 C 1394.480469 1818.621094 1398.140625 1826.304688 1400.441406 1828.636719 C 1410.253906 1838.582031 1439.757812 1837.894531 1446.234375 1824.351562 C 1446.609375 1823.570312 1448.480469 1818.910156 1448.480469 1818.601562 L 1448.480469 1766.101562 L 1435.480469 1766.101562 L 1435.480469 1812.601562 C 1435.480469 1822.015625 1423.992188 1824.433594 1416.734375 1821.347656 C 1414.6875 1820.476562 1411.480469 1815.425781 1411.480469 1813.601562 Z M 1279.480469 1766.101562 L 1263.480469 1766.101562 L 1263.480469 1834.101562 L 1277.980469 1834.101562 L 1279.480469 1832.601562 L 1279.480469 1806.101562 L 1300.480469 1806.101562 L 1300.480469 1834.101562 L 1314.980469 1834.101562 C 1316.40625 1833.222656 1316.359375 1832.105469 1316.53125 1830.652344 C 1317.992188 1818.191406 1317.992188 1782.007812 1316.53125 1769.550781 C 1316.359375 1768.09375 1316.40625 1766.976562 1314.980469 1766.101562 L 1300.480469 1766.101562 L 1300.480469 1792.101562 L 1281.980469 1792.101562 C 1281.730469 1792.101562 1281.386719 1792.914062 1280.980469 1792.882812 L 1279.480469 1791.601562 Z M 1494.667969 1783.921875 L 1508.457031 1779.609375 C 1497.253906 1755.742188 1454.691406 1760.046875 1458.460938 1790.625 C 1460.582031 1807.855469 1488.980469 1805.183594 1493.363281 1812.730469 C 1499.277344 1822.914062 1478.527344 1827.136719 1472.023438 1819.0625 C 1470.933594 1817.710938 1469.640625 1813.144531 1468.863281 1813.023438 L 1454.476562 1816.105469 C 1459.898438 1847.296875 1520.886719 1838.222656 1508.953125 1806.128906 C 1502.703125 1789.320312 1483.046875 1794.546875 1475.539062 1787.546875 C 1464.964844 1777.699219 1491.476562 1771.269531 1494.667969 1783.921875 M 1250.480469 1572.101562 L 1250.480469 1535.601562 L 1248.980469 1534.101562 L 1125.980469 1534.101562 L 1124.480469 1535.601562 L 1124.480469 1730.101562 L 1250.480469 1730.101562 L 1250.480469 1692.601562 L 1248.980469 1691.101562 L 1166.480469 1691.101562 L 1166.480469 1649.101562 L 1232.480469 1649.101562 L 1232.480469 1612.101562 L 1166.480469 1612.101562 L 1166.480469 1572.101562 Z M 1033.480469 1691.101562 L 1033.480469 1535.601562 L 1031.980469 1534.101562 L 992.980469 1534.101562 L 991.480469 1535.601562 L 991.480469 1730.101562 L 1103.480469 1730.101562 L 1103.480469 1692.601562 L 1101.980469 1691.101562 Z M 653.980469 1534.101562 L 652.429688 1537.550781 C 654.113281 1579.136719 650.367188 1622.234375 652.4375 1663.640625 C 654.386719 1702.542969 667.578125 1728.109375 708.992188 1733.089844 C 746.398438 1737.585938 785.039062 1726.085938 791.324219 1684.441406 C 798.339844 1637.929688 790.488281 1584.851562 793.53125 1537.550781 L 791.980469 1534.101562 L 758.980469 1534.101562 L 757.480469 1535.601562 L 757.480469 1673.601562 C 757.480469 1675.464844 755.007812 1682.015625 753.914062 1684.035156 C 744.40625 1701.578125 705.972656 1700.863281 699.425781 1679.652344 C 698.949219 1678.101562 697.480469 1671.71875 697.480469 1670.601562 L 697.480469 1535.601562 L 695.980469 1534.101562 Z M 526.980469 1534.101562 L 484.980469 1534.101562 L 483.480469 1535.601562 L 483.480469 1730.101562 L 515.480469 1730.101562 L 515.480469 1600.101562 L 583.480469 1730.101562 L 619.480469 1730.101562 L 619.480469 1535.601562 L 617.980469 1534.101562 L 588.980469 1534.101562 L 587.480469 1535.601562 L 587.480469 1644.601562 C 587.480469 1645.375 589.199219 1647.476562 588.46875 1649.101562 Z M 967.484375 1607.097656 C 964.683594 1573 949.507812 1539.167969 912.722656 1532.359375 C 783.683594 1508.472656 786.039062 1760.078125 913.683594 1731.804688 C 943.46875 1725.207031 966.050781 1694.460938 967.425781 1664.449219 C 967.476562 1663.320312 967.636719 1662.289062 966.53125 1661.546875 L 928.058594 1659.042969 C 924.148438 1680.101562 915.527344 1699.820312 890.21875 1695.859375 C 869.390625 1692.601562 864.476562 1667.015625 863.4375 1649.640625 C 862.1875 1628.667969 861.679688 1578.726562 885.917969 1570.039062 C 912.640625 1560.460938 926.152344 1587.300781 924.476562 1610.105469 Z M 1547.480469 1464.101562 C 1546.855469 1459.660156 1549.042969 1453.5625 1545.980469 1450.101562 L 1186.480469 1450.101562 L 1186.480469 1464.101562 Z M 876.480469 1464.101562 L 876.339844 1451.742188 L 873.027344 1450.050781 L 514.960938 1451.011719 L 514.480469 1464.101562 Z M 1146.480469 1406.101562 L 1081.480469 1406.101562 L 1081.480469 1509.101562 L 1146.480469 1509.101562 L 1146.480469 1489.101562 L 1103.480469 1489.101562 L 1103.480469 1467.101562 L 1137.480469 1467.101562 L 1137.480469 1448.101562 L 1103.480469 1448.101562 L 1103.480469 1426.101562 L 1146.480469 1426.101562 Z M 1014.480469 1406.101562 L 993.480469 1406.101562 L 993.480469 1509.101562 L 1014.480469 1509.101562 L 1014.480469 1467.101562 L 1043.480469 1467.101562 L 1043.480469 1509.101562 L 1063.480469 1509.101562 L 1063.480469 1406.101562 L 1043.480469 1406.101562 L 1043.480469 1446.101562 L 1014.480469 1446.101562 Z M 984.480469 1406.101562 L 918.980469 1406.101562 L 917.480469 1407.601562 L 917.480469 1426.101562 L 938.980469 1426.101562 L 940.480469 1427.601562 L 940.480469 1509.101562 L 961.480469 1509.101562 L 961.480469 1427.601562 C 962.324219 1426.3125 964.628906 1426.101562 965.980469 1426.101562 L 981.980469 1426.101562 C 982.226562 1426.101562 982.574219 1426.914062 982.980469 1426.882812 L 984.480469 1425.601562 Z M 1591.480469 1380.101562 L 1591.480469 634.601562 L 1038.832031 288.308594 L 485.480469 634.601562 L 485.480469 1380.101562 L 796.480469 1380.101562 L 796.480469 1310.101562 L 555.480469 1310.101562 L 555.480469 672.101562 L 1038.066406 371.078125 L 1521.480469 672.101562 L 1521.480469 1310.101562 L 1280.480469 1310.101562 L 1280.480469 1380.101562 Z M 1591.480469 1380.101562 "/>
<path fill-rule="nonzero" fill="rgb(12.5%, 16.499329%, 21.998596%)" fill-opacity="1" d="M 1591.480469 1380.101562 L 1280.480469 1380.101562 L 1280.480469 1310.101562 L 1521.480469 1310.101562 L 1521.480469 672.101562 L 1038.066406 371.078125 L 555.480469 672.101562 L 555.480469 1310.101562 L 796.480469 1310.101562 L 796.480469 1380.101562 L 485.480469 1380.101562 L 485.480469 634.601562 L 1038.832031 288.308594 L 1591.480469 634.601562 Z M 1591.480469 1380.101562 "/>
<path fill-rule="nonzero" fill="rgb(21.199036%, 26.699829%, 31.799316%)" fill-opacity="1" d="M 1146.933594 1145.273438 C 1109.960938 1134.886719 1074.605469 1119.796875 1039.429688 1104.683594 C 1005.003906 1119.863281 970.078125 1134.238281 933.910156 1144.804688 C 952.4375 1205.652344 1012.816406 1299.824219 1085.40625 1243.238281 C 1114.863281 1220.277344 1134.773438 1179.753906 1146.933594 1145.273438 M 1006.925781 1088.285156 L 963.261719 1065.441406 L 904.9375 1030.273438 C 908.53125 1059.398438 915.703125 1087.867188 923.003906 1116.191406 C 924.398438 1117.378906 954.003906 1108.644531 958.453125 1107.285156 C 972.550781 1102.980469 988.625 1097.652344 1002.1875 1092.019531 C 1003.234375 1091.585938 1008.507812 1090.160156 1006.925781 1088.285156 M 1156.921875 1117.273438 C 1162.511719 1097.253906 1167.957031 1076.988281 1171.664062 1056.496094 C 1172.945312 1049.417969 1175.195312 1039.109375 1175.460938 1032.261719 C 1175.511719 1030.886719 1176.375 1030.535156 1174.433594 1029.285156 C 1154.53125 1043.03125 1133.683594 1055.554688 1112.605469 1067.4375 C 1099.160156 1075.019531 1084.859375 1081.523438 1071.9375 1089.773438 C 1099.53125 1101.011719 1128.125 1109.59375 1156.921875 1117.273438 M 1186.925781 1123.265625 C 1228.332031 1128.789062 1281.910156 1133.734375 1318.460938 1109.292969 C 1380.707031 1067.679688 1330.324219 979.71875 1293.292969 938.34375 C 1264.585938 962.832031 1235.941406 987.441406 1204.878906 1008.964844 C 1200.625 1047.34375 1194.914062 1085.519531 1186.925781 1123.265625 M 874.644531 1008.546875 C 844.171875 987.734375 815.507812 964.300781 788.480469 939.214844 C 787.6875 938.421875 786.683594 937.980469 785.5625 938.324219 C 782.304688 939.324219 756.972656 977.859375 753.761719 983.59375 C 700.976562 1077.796875 745.917969 1129.628906 846.390625 1127.226562 C 862.25 1126.847656 877.242188 1125.726562 892.941406 1123.265625 C 886.34375 1091.328125 880.9375 1059.160156 876.941406 1026.757812 C 876.460938 1022.839844 876.613281 1010.925781 874.644531 1008.546875 M 1265.582031 922.917969 C 1267.929688 920.507812 1269.996094 916.9375 1272.914062 914.765625 C 1266.378906 907.472656 1212.714844 855.386719 1208.449219 856.273438 C 1206.792969 856.617188 1207.332031 858.246094 1207.371094 859.253906 C 1208.441406 887.765625 1209.667969 916.207031 1208.972656 944.808594 L 1206.9375 973.261719 C 1208.492188 973.546875 1209.253906 973.121094 1210.484375 972.316406 C 1226.335938 961.941406 1251.878906 936.984375 1265.582031 922.917969 M 872.929688 855.273438 C 872.257812 854.511719 867.398438 858.5625 866.457031 859.289062 C 857.738281 866.046875 848.167969 874.363281 839.917969 881.753906 C 835.753906 885.488281 806.898438 912.425781 806.898438 914.765625 C 825.9375 936.84375 849.117188 955.421875 871.433594 974.246094 C 872.960938 973.160156 872.941406 972.636719 872.851562 970.890625 C 871.347656 941.507812 870.171875 912.222656 870.890625 882.726562 Z M 1039.601562 753.496094 C 990.863281 775.5 944.050781 802.222656 900.863281 833.695312 C 894.855469 886.726562 896.1875 940.507812 899.957031 993.742188 L 901.355469 996.34375 C 944.882812 1027.292969 991.34375 1054.566406 1040.269531 1076.042969 C 1080.46875 1056.964844 1120.378906 1036.078125 1157.246094 1011.078125 C 1160.90625 1008.597656 1177.417969 997.921875 1178.980469 995.8125 C 1180.210938 994.15625 1180.617188 990.851562 1180.925781 988.757812 C 1182.878906 975.414062 1183.527344 956.542969 1183.972656 942.808594 C 1185.011719 910.902344 1184.808594 871.296875 1180.9375 839.761719 C 1180.628906 837.265625 1180.21875 835.183594 1178.449219 833.25 C 1173.535156 827.882812 1155.34375 817.046875 1148.25 812.453125 C 1113.90625 790.210938 1076.933594 770.140625 1039.601562 753.496094 M 1006.929688 740.253906 C 1006.824219 738.875 1005.472656 738.667969 1004.480469 738.21875 C 992.886719 732.933594 977.023438 727.917969 964.699219 724 C 959.589844 722.375 924.773438 711.816406 923.007812 713.34375 C 915.445312 741.277344 908.957031 769.542969 904.9375 798.261719 L 963.261719 763.09375 Z M 1156.90625 712.265625 C 1128.40625 719.625 1099.832031 727.730469 1072.953125 739.765625 C 1107.433594 758.441406 1142.191406 776.832031 1174.433594 799.246094 C 1176.34375 798.003906 1175.542969 797.679688 1175.472656 796.257812 C 1174.929688 785.265625 1170.972656 769.226562 1168.625 758.074219 C 1165.371094 742.636719 1161.429688 727.351562 1156.90625 712.265625 M 1205.234375 819.976562 C 1236.210938 841.699219 1265.75 865.472656 1293.433594 891.242188 C 1325.347656 854.789062 1369.007812 783.992188 1336.773438 736.929688 C 1312.960938 702.164062 1254.492188 699.179688 1216.441406 702.277344 C 1206.613281 703.078125 1196.707031 705.027344 1186.933594 706.273438 C 1190.625 725.105469 1194.875 743.917969 1197.789062 762.910156 C 1200.695312 781.828125 1201.929688 801.289062 1205.234375 819.976562 M 892.933594 706.273438 C 843.789062 697.726562 755.882812 694.050781 735.1875 752.023438 C 724.03125 783.28125 739.011719 820.679688 754.761719 847.9375 C 763.621094 863.269531 774.460938 877.480469 785.539062 891.222656 C 814.265625 865.382812 844.59375 841.539062 875.414062 818.25 C 879.070312 780.578125 884.800781 743.183594 892.933594 706.273438 M 1146.9375 683.257812 C 1128.289062 627.007812 1072.34375 534.761719 1002.023438 580.859375 C 976.765625 597.414062 956.128906 630.46875 943.757812 657.589844 C 941.722656 662.042969 934.035156 679.144531 933.898438 682.761719 C 933.8125 685.078125 934.125 683.859375 935.429688 684.277344 C 970.839844 695.683594 1005.613281 708.320312 1039.429688 723.847656 C 1074.65625 708.835938 1109.992188 693.734375 1146.9375 683.257812 M 1335.515625 894.847656 C 1330.113281 900.980469 1324.039062 906.757812 1318.183594 912.484375 L 1317.917969 915.5625 C 1348.0625 946.664062 1378.835938 982.933594 1397.105469 1022.59375 C 1428.046875 1089.753906 1416.476562 1149.007812 1337.96875 1165.800781 C 1286.113281 1176.890625 1229.664062 1166.523438 1178.882812 1154.683594 C 1165.03125 1199.019531 1149.339844 1243.738281 1121.765625 1281.597656 C 1079.882812 1339.097656 1023.554688 1355.761719 971.417969 1298.28125 C 935.6875 1258.886719 916.804688 1204.582031 900.972656 1154.675781 C 872.78125 1160.726562 844.316406 1167.148438 815.421875 1169.257812 C 732.234375 1175.328125 640.347656 1149.910156 673.648438 1045.480469 C 689.449219 995.925781 727.335938 952.242188 761.859375 914.628906 C 730.867188 879.621094 699.101562 843.800781 680.464844 800.234375 C 647.933594 724.183594 675.707031 670.164062 758.554688 660.386719 C 806.460938 654.734375 854.4375 663.367188 900.964844 673.859375 C 916.011719 626.113281 933.546875 575.726562 965.957031 536.789062 C 1023.007812 468.257812 1083.984375 488.929688 1128.347656 556.351562 C 1151.921875 592.171875 1166.207031 633.109375 1178.882812 673.851562 C 1202.761719 668.316406 1226.984375 662.859375 1251.445312 660.277344 C 1301.554688 654.988281 1384.851562 656.714844 1407.417969 712.285156 C 1431.839844 772.429688 1373.429688 851.800781 1335.515625 894.847656 "/>
<path fill-rule="nonzero" fill="rgb(12.5%, 16.499329%, 21.998596%)" fill-opacity="1" d="M 1477.480469 1620.101562 C 1491.683594 1618.746094 1518.238281 1624.28125 1528.457031 1612.578125 C 1537.933594 1601.722656 1537.832031 1583.125 1525.949219 1574.132812 C 1523.445312 1572.234375 1519.085938 1570.101562 1515.980469 1570.101562 L 1477.480469 1570.101562 Z M 1436.480469 1534.101562 C 1462.351562 1535.132812 1489.261719 1532.734375 1515.019531 1534.058594 C 1534.980469 1535.085938 1553.710938 1537.984375 1565.917969 1555.164062 C 1585.769531 1583.101562 1581.234375 1628.371094 1547.605469 1643.222656 L 1547.394531 1644.578125 L 1579.480469 1730.101562 L 1533.480469 1730.101562 L 1507.480469 1653.101562 L 1477.480469 1653.101562 L 1477.480469 1730.101562 L 1436.480469 1730.101562 Z M 1436.480469 1534.101562 "/>
<path fill-rule="nonzero" fill="rgb(12.5%, 16.499329%, 21.998596%)" fill-opacity="1" d="M 526.980469 1534.101562 L 588.46875 1649.101562 C 589.199219 1647.476562 587.480469 1645.375 587.480469 1644.601562 L 587.480469 1535.601562 L 588.980469 1534.101562 L 617.980469 1534.101562 L 619.480469 1535.601562 L 619.480469 1730.101562 L 583.480469 1730.101562 L 515.480469 1600.101562 L 515.480469 1730.101562 L 483.480469 1730.101562 L 483.480469 1535.601562 L 484.980469 1534.101562 Z M 526.980469 1534.101562 "/>
<path fill-rule="nonzero" fill="rgb(12.5%, 16.499329%, 21.998596%)" fill-opacity="1" d="M 1250.480469 1572.101562 L 1166.480469 1572.101562 L 1166.480469 1612.101562 L 1232.480469 1612.101562 L 1232.480469 1649.101562 L 1166.480469 1649.101562 L 1166.480469 1691.101562 L 1248.980469 1691.101562 L 1250.480469 1692.601562 L 1250.480469 1730.101562 L 1124.480469 1730.101562 L 1124.480469 1535.601562 L 1125.980469 1534.101562 L 1248.980469 1534.101562 L 1250.480469 1535.601562 Z M 1250.480469 1572.101562 "/>
<path fill-rule="nonzero" fill="rgb(12.5%, 16.499329%, 21.998596%)" fill-opacity="1" d="M 653.980469 1534.101562 L 695.980469 1534.101562 L 697.480469 1535.601562 L 697.480469 1670.601562 C 697.480469 1671.71875 698.949219 1678.101562 699.425781 1679.652344 C 705.972656 1700.863281 744.40625 1701.578125 753.914062 1684.035156 C 755.007812 1682.015625 757.480469 1675.464844 757.480469 1673.601562 L 757.480469 1535.601562 L 758.980469 1534.101562 L 791.980469 1534.101562 L 793.53125 1537.550781 C 790.488281 1584.851562 798.339844 1637.929688 791.324219 1684.441406 C 785.039062 1726.085938 746.398438 1737.585938 708.992188 1733.089844 C 667.578125 1728.109375 654.386719 1702.542969 652.4375 1663.640625 C 650.367188 1622.234375 654.113281 1579.136719 652.429688 1537.550781 Z M 653.980469 1534.101562 "/>
<path fill-rule="nonzero" fill="rgb(12.5%, 16.499329%, 21.998596%)" fill-opacity="1" d="M 1351.480469 1654.101562 L 1332.980469 1586.089844 L 1314.480469 1654.101562 Z M 1257.480469 1730.101562 L 1313.582031 1534.203125 L 1360.019531 1534.035156 L 1416.480469 1730.101562 L 1371.480469 1730.101562 L 1361.59375 1690.683594 L 1304.4375 1690.558594 L 1293.480469 1730.101562 Z M 1257.480469 1730.101562 "/>
<path fill-rule="nonzero" fill="rgb(12.5%, 16.499329%, 21.998596%)" fill-opacity="1" d="M 967.484375 1607.097656 L 924.476562 1610.105469 C 926.152344 1587.300781 912.640625 1560.460938 885.917969 1570.039062 C 861.679688 1578.726562 862.1875 1628.667969 863.4375 1649.640625 C 864.476562 1667.015625 869.394531 1692.601562 890.222656 1695.859375 C 915.527344 1699.820312 924.148438 1680.101562 928.0625 1659.042969 L 966.53125 1661.546875 C 967.636719 1662.289062 967.476562 1663.320312 967.425781 1664.453125 C 966.046875 1694.460938 943.472656 1725.207031 913.683594 1731.804688 C 786.035156 1760.078125 783.683594 1508.472656 912.722656 1532.359375 C 949.507812 1539.167969 964.683594 1573 967.484375 1607.097656 "/>
<path fill-rule="nonzero" fill="rgb(12.5%, 16.499329%, 21.998596%)" fill-opacity="1" d="M 1033.480469 1691.101562 L 1101.980469 1691.101562 L 1103.480469 1692.601562 L 1103.480469 1730.101562 L 991.480469 1730.101562 L 991.480469 1535.601562 L 992.980469 1534.101562 L 1031.980469 1534.101562 L 1033.480469 1535.601562 Z M 1033.480469 1691.101562 "/>
<path fill-rule="nonzero" fill="rgb(12.5%, 16.499329%, 21.998596%)" fill-opacity="1" d="M 876.480469 1464.101562 L 514.480469 1464.101562 L 514.960938 1451.011719 L 873.027344 1450.050781 L 876.339844 1451.742188 Z M 876.480469 1464.101562 "/>
<path fill-rule="nonzero" fill="rgb(12.5%, 16.499329%, 21.998596%)" fill-opacity="1" d="M 1547.480469 1464.101562 L 1186.480469 1464.101562 L 1186.480469 1450.101562 L 1545.980469 1450.101562 C 1549.042969 1453.5625 1546.855469 1459.660156 1547.480469 1464.101562 "/>
<path fill-rule="nonzero" fill="rgb(12.5%, 16.499329%, 21.998596%)" fill-opacity="1" d="M 1014.480469 1406.101562 L 1014.480469 1446.101562 L 1043.480469 1446.101562 L 1043.480469 1406.101562 L 1063.480469 1406.101562 L 1063.480469 1509.101562 L 1043.480469 1509.101562 L 1043.480469 1467.101562 L 1014.480469 1467.101562 L 1014.480469 1509.101562 L 993.480469 1509.101562 L 993.480469 1406.101562 Z M 1014.480469 1406.101562 "/>
<path fill-rule="nonzero" fill="rgb(12.5%, 16.499329%, 21.998596%)" fill-opacity="1" d="M 1146.480469 1406.101562 L 1146.480469 1426.101562 L 1103.480469 1426.101562 L 1103.480469 1448.101562 L 1137.480469 1448.101562 L 1137.480469 1467.101562 L 1103.480469 1467.101562 L 1103.480469 1489.101562 L 1146.480469 1489.101562 L 1146.480469 1509.101562 L 1081.480469 1509.101562 L 1081.480469 1406.101562 Z M 1146.480469 1406.101562 "/>
<path fill-rule="nonzero" fill="rgb(12.5%, 16.499329%, 21.998596%)" fill-opacity="1" d="M 984.480469 1406.101562 L 984.480469 1425.601562 L 982.980469 1426.882812 C 982.574219 1426.914062 982.226562 1426.101562 981.980469 1426.101562 L 965.980469 1426.101562 C 964.628906 1426.101562 962.324219 1426.3125 961.480469 1427.601562 L 961.480469 1509.101562 L 940.480469 1509.101562 L 940.480469 1427.601562 L 938.980469 1426.101562 L 917.480469 1426.101562 L 917.480469 1407.601562 L 918.980469 1406.101562 Z M 984.480469 1406.101562 "/>
<path fill-rule="nonzero" fill="rgb(12.5%, 16.499329%, 21.998596%)" fill-opacity="1" d="M 1279.480469 1766.101562 L 1279.480469 1791.601562 L 1280.980469 1792.882812 C 1281.386719 1792.914062 1281.730469 1792.101562 1281.980469 1792.101562 L 1300.480469 1792.101562 L 1300.480469 1766.101562 L 1314.980469 1766.101562 C 1316.40625 1766.976562 1316.359375 1768.09375 1316.53125 1769.550781 C 1317.992188 1782.007812 1317.992188 1818.191406 1316.53125 1830.652344 C 1316.359375 1832.105469 1316.40625 1833.222656 1314.980469 1834.101562 L 1300.480469 1834.101562 L 1300.480469 1806.101562 L 1279.480469 1806.101562 L 1279.480469 1832.601562 L 1277.980469 1834.101562 L 1263.480469 1834.101562 L 1263.480469 1766.101562 Z M 1279.480469 1766.101562 "/>
<path fill-rule="nonzero" fill="rgb(12.5%, 16.499329%, 21.998596%)" fill-opacity="1" d="M 1347.824219 1819.757812 C 1352.730469 1824.640625 1361.589844 1822.886719 1364.90625 1817.027344 C 1369.667969 1808.613281 1370.359375 1778.8125 1356.714844 1777.285156 C 1339.652344 1775.378906 1340.585938 1812.550781 1347.824219 1819.757812 M 1372.105469 1769.484375 C 1391.65625 1783.667969 1388.21875 1831.390625 1360.894531 1835.015625 C 1318.824219 1840.601562 1315.761719 1774.308594 1347.4375 1765.558594 C 1355.4375 1763.347656 1365.289062 1764.535156 1372.105469 1769.484375 "/>
<path fill-rule="nonzero" fill="rgb(12.5%, 16.499329%, 21.998596%)" fill-opacity="1" d="M 1570.480469 1779.101562 L 1537.480469 1779.101562 L 1537.480469 1793.101562 L 1562.480469 1793.101562 L 1562.480469 1807.101562 L 1537.480469 1807.101562 L 1537.480469 1820.101562 L 1568.980469 1820.101562 C 1571.386719 1823.054688 1571.421875 1831.03125 1568.980469 1834.101562 L 1521.480469 1834.101562 L 1521.480469 1766.101562 L 1568.980469 1766.101562 C 1571.984375 1769.28125 1569.90625 1774.953125 1570.480469 1779.101562 "/>
<path fill-rule="nonzero" fill="rgb(12.5%, 16.499329%, 21.998596%)" fill-opacity="1" d="M 1494.667969 1783.921875 C 1491.476562 1771.269531 1464.964844 1777.699219 1475.535156 1787.546875 C 1483.046875 1794.546875 1502.703125 1789.320312 1508.953125 1806.128906 C 1520.886719 1838.222656 1459.898438 1847.296875 1454.476562 1816.105469 L 1468.863281 1813.023438 C 1469.640625 1813.144531 1470.933594 1817.710938 1472.023438 1819.0625 C 1478.527344 1827.136719 1499.277344 1822.914062 1493.363281 1812.730469 C 1488.980469 1805.183594 1460.582031 1807.855469 1458.460938 1790.625 C 1454.691406 1760.046875 1497.253906 1755.742188 1508.457031 1779.609375 Z M 1494.667969 1783.921875 "/>
<path fill-rule="nonzero" fill="rgb(12.5%, 16.499329%, 21.998596%)" fill-opacity="1" d="M 1411.480469 1766.101562 L 1411.480469 1813.601562 C 1411.480469 1815.425781 1414.6875 1820.476562 1416.734375 1821.347656 C 1423.992188 1824.433594 1435.480469 1822.015625 1435.480469 1812.601562 L 1435.480469 1766.101562 L 1448.480469 1766.101562 L 1448.480469 1818.601562 C 1448.480469 1818.910156 1446.609375 1823.570312 1446.234375 1824.351562 C 1439.757812 1837.894531 1410.253906 1838.582031 1400.441406 1828.636719 C 1398.140625 1826.304688 1394.480469 1818.621094 1394.480469 1815.601562 L 1394.480469 1766.101562 Z M 1411.480469 1766.101562 "/>
<path fill-rule="nonzero" fill="rgb(61.199951%, 67.098999%, 76.098633%)" fill-opacity="1" d="M 1118.40625 909.300781 C 1118.40625 953.007812 1082.972656 988.4375 1039.269531 988.4375 C 995.566406 988.4375 960.136719 953.007812 960.136719 909.300781 C 960.136719 865.597656 995.566406 830.167969 1039.269531 830.167969 C 1082.972656 830.167969 1118.40625 865.597656 1118.40625 909.300781 "/>
</svg>
