<?xml version="1.0" encoding="UTF-8"?>
<svg xmlns="http://www.w3.org/2000/svg" width="1106" height="1092" viewBox="485 288 1106 1092">
<!-- House outline - dark slate -->
<path fill-rule="nonzero" fill="#1f2a38" fill-opacity="1" d="M 1591.480469 1380.101562 L 1280.480469 1380.101562 L 1280.480469 1310.101562 L 1521.480469 1310.101562 L 1521.480469 672.101562 L 1038.066406 371.078125 L 555.480469 672.101562 L 555.480469 1310.101562 L 796.480469 1310.101562 L 796.480469 1380.101562 L 485.480469 1380.101562 L 485.480469 634.601562 L 1038.832031 288.308594 L 1591.480469 634.601562 Z M 1591.480469 1380.101562 "/>
<!-- Atom design - medium slate -->
<path fill-rule="nonzero" fill="#364451" fill-opacity="1" d="M 1146.933594 1145.273438 C 1109.960938 1134.886719 1074.605469 1119.796875 1039.429688 1104.683594 C 1005.003906 1119.863281 970.078125 1134.238281 933.910156 1144.804688 C 952.4375 1205.652344 1012.816406 1299.824219 1085.40625 1243.238281 C 1114.863281 1220.277344 1134.773438 1179.753906 1146.933594 1145.273438 M 1006.925781 1088.285156 L 963.261719 1065.441406 L 904.9375 1030.273438 C 908.53125 1059.398438 915.703125 1087.867188 923.003906 1116.191406 C 924.398438 1117.378906 954.003906 1108.644531 958.453125 1107.285156 C 972.550781 1102.980469 988.625 1097.652344 1002.1875 1092.019531 C 1003.234375 1091.585938 1008.507812 1090.160156 1006.925781 1088.285156 M 1156.921875 1117.273438 C 1162.511719 1097.253906 1167.957031 1076.988281 1171.664062 1056.496094 C 1172.945312 1049.417969 1175.195312 1039.109375 1175.460938 1032.261719 C 1175.511719 1030.886719 1176.375 1030.535156 1174.433594 1029.285156 C 1154.53125 1043.03125 1133.683594 1055.554688 1112.605469 1067.4375 C 1099.160156 1075.019531 1084.859375 1081.523438 1071.9375 1089.773438 C 1099.53125 1101.011719 1128.125 1109.59375 1156.921875 1117.273438 M 1186.925781 1123.265625 C 1228.332031 1128.789062 1281.910156 1133.734375 1318.460938 1109.292969 C 1380.707031 1067.679688 1330.324219 979.71875 1293.292969 938.34375 C 1264.585938 962.832031 1235.941406 987.441406 1204.878906 1008.964844 C 1200.625 1047.34375 1194.914062 1085.519531 1186.925781 1123.265625 M 874.644531 1008.546875 C 844.171875 987.734375 815.507812 964.300781 788.480469 939.214844 C 787.6875 938.421875 786.683594 937.980469 785.5625 938.324219 C 782.304688 939.324219 756.972656 977.859375 753.761719 983.59375 C 700.976562 1077.796875 745.917969 1129.628906 846.390625 1127.226562 C 862.25 1126.847656 877.242188 1125.726562 892.941406 1123.265625 C 886.34375 1091.328125 880.9375 1059.160156 876.941406 1026.757812 C 876.460938 1022.839844 876.613281 1010.925781 874.644531 1008.546875 M 1265.582031 922.917969 C 1267.929688 920.507812 1269.996094 916.9375 1272.914062 914.765625 C 1266.378906 907.472656 1212.714844 855.386719 1208.449219 856.273438 C 1206.792969 856.617188 1207.332031 858.246094 1207.371094 859.253906 C 1208.441406 887.765625 1209.667969 916.207031 1208.972656 944.808594 L 1206.9375 973.261719 C 1208.492188 973.546875 1209.253906 973.121094 1210.484375 972.316406 C 1226.335938 961.941406 1251.878906 936.984375 1265.582031 922.917969 M 872.929688 855.273438 C 872.257812 854.511719 867.398438 858.5625 866.457031 859.289062 C 857.738281 866.046875 848.167969 874.363281 839.917969 881.753906 C 835.753906 885.488281 806.898438 912.425781 806.898438 914.765625 C 825.9375 936.84375 849.117188 955.421875 871.433594 974.246094 C 872.960938 973.160156 872.941406 972.636719 872.851562 970.890625 C 871.347656 941.507812 870.171875 912.222656 870.890625 882.726562 Z M 1039.601562 753.496094 C 990.863281 775.5 944.050781 802.222656 900.863281 833.695312 C 894.855469 886.726562 896.1875 940.507812 899.957031 993.742188 L 901.355469 996.34375 C 944.882812 1027.292969 991.34375 1054.566406 1040.269531 1076.042969 C 1080.46875 1056.964844 1120.378906 1036.078125 1157.246094 1011.078125 C 1160.90625 1008.597656 1177.417969 997.921875 1178.980469 995.8125 C 1180.210938 994.15625 1180.617188 990.851562 1180.925781 988.757812 C 1182.878906 975.414062 1183.527344 956.542969 1183.972656 942.808594 C 1185.011719 910.902344 1184.808594 871.296875 1180.9375 839.761719 C 1180.628906 837.265625 1180.21875 835.183594 1178.449219 833.25 C 1173.535156 827.882812 1155.34375 817.046875 1148.25 812.453125 C 1113.90625 790.210938 1076.933594 770.140625 1039.601562 753.496094 M 1006.929688 740.253906 C 1006.824219 738.875 1005.472656 738.667969 1004.480469 738.21875 C 992.886719 732.933594 977.023438 727.917969 964.699219 724 C 959.589844 722.375 924.773438 711.816406 923.007812 713.34375 C 915.445312 741.277344 908.957031 769.542969 904.9375 798.261719 L 963.261719 763.09375 Z M 1156.90625 712.265625 C 1128.40625 719.625 1099.832031 727.730469 1072.953125 739.765625 C 1107.433594 758.441406 1142.191406 776.832031 1174.433594 799.246094 C 1176.34375 798.003906 1175.542969 797.679688 1175.472656 796.257812 C 1174.929688 785.265625 1170.972656 769.226562 1168.625 758.074219 C 1165.371094 742.636719 1161.429688 727.351562 1156.90625 712.265625 M 1205.234375 819.976562 C 1236.210938 841.699219 1265.75 865.472656 1293.433594 891.242188 C 1325.347656 854.789062 1369.007812 783.992188 1336.773438 736.929688 C 1312.960938 702.164062 1254.492188 699.179688 1216.441406 702.277344 C 1206.613281 703.078125 1196.707031 705.027344 1186.933594 706.273438 C 1190.625 725.105469 1194.875 743.917969 1197.789062 762.910156 C 1200.695312 781.828125 1201.929688 801.289062 1205.234375 819.976562 M 892.933594 706.273438 C 843.789062 697.726562 755.882812 694.050781 735.1875 752.023438 C 724.03125 783.28125 739.011719 820.679688 754.761719 847.9375 C 763.621094 863.269531 774.460938 877.480469 785.539062 891.222656 C 814.265625 865.382812 844.59375 841.539062 875.414062 818.25 C 879.070312 780.578125 884.800781 743.183594 892.933594 706.273438 M 1146.9375 683.257812 C 1128.289062 627.007812 1072.34375 534.761719 1002.023438 580.859375 C 976.765625 597.414062 956.128906 630.46875 943.757812 657.589844 C 941.722656 662.042969 934.035156 679.144531 933.898438 682.761719 C 933.8125 685.078125 934.125 683.859375 935.429688 684.277344 C 970.839844 695.683594 1005.613281 708.320312 1039.429688 723.847656 C 1074.65625 708.835938 1109.992188 693.734375 1146.9375 683.257812 M 1335.515625 894.847656 C 1330.113281 900.980469 1324.039062 906.757812 1318.183594 912.484375 L 1317.917969 915.5625 C 1348.0625 946.664062 1378.835938 982.933594 1397.105469 1022.59375 C 1428.046875 1089.753906 1416.476562 1149.007812 1337.96875 1165.800781 C 1286.113281 1176.890625 1229.664062 1166.523438 1178.882812 1154.683594 C 1165.03125 1199.019531 1149.339844 1243.738281 1121.765625 1281.597656 C 1079.882812 1339.097656 1023.554688 1355.761719 971.417969 1298.28125 C 935.6875 1258.886719 916.804688 1204.582031 900.972656 1154.675781 C 872.78125 1160.726562 844.316406 1167.148438 815.421875 1169.257812 C 732.234375 1175.328125 640.347656 1149.910156 673.648438 1045.480469 C 689.449219 995.925781 727.335938 952.242188 761.859375 914.628906 C 730.867188 879.621094 699.101562 843.800781 680.464844 800.234375 C 647.933594 724.183594 675.707031 670.164062 758.554688 660.386719 C 806.460938 654.734375 854.4375 663.367188 900.964844 673.859375 C 916.011719 626.113281 933.546875 575.726562 965.957031 536.789062 C 1023.007812 468.257812 1083.984375 488.929688 1128.347656 556.351562 C 1151.921875 592.171875 1166.207031 633.109375 1178.882812 673.851562 C 1202.761719 668.316406 1226.984375 662.859375 1251.445312 660.277344 C 1301.554688 654.988281 1384.851562 656.714844 1407.417969 712.285156 C 1431.839844 772.429688 1373.429688 851.800781 1335.515625 894.847656 "/>
<!-- Center circle - light slate/blue -->
<path fill-rule="nonzero" fill="#9cabc2" fill-opacity="1" d="M 1118.40625 909.300781 C 1118.40625 953.007812 1082.972656 988.4375 1039.269531 988.4375 C 995.566406 988.4375 960.136719 953.007812 960.136719 909.300781 C 960.136719 865.597656 995.566406 830.167969 1039.269531 830.167969 C 1082.972656 830.167969 1118.40625 865.597656 1118.40625 909.300781 "/>
</svg>
